<svg width="15" height="23" viewBox="0 0 15 23" fill="none" xmlns="http://www.w3.org/2000/svg">
<path d="M7.502 0.866943C9.765 0.866943 11.5 3.02569 11.5 5.69437L11.499 6.03751H13.79C14.427 6.03751 15.004 6.5432 15 7.43347L14.011 19.1908C14.011 20.8937 12.721 22.1144 11.143 22.1144H3.86C2.285 22.1144 0.993 20.8757 0.997 19.2662L0 7.2858C0 6.41678 0.581 6.03751 1.214 6.03751H3.504V5.69437C3.504 3.02569 5.24 0.866943 7.502 0.866943ZM13.18 8.03265H1.831L2.758 19.1727C2.758 19.6933 3.202 20.1193 3.861 20.1193H11.143C11.809 20.1193 12.246 19.706 12.25 19.0973L13.18 8.03265ZM7.502 2.86208C6.254 2.86208 5.27 4.087 5.27 5.69437L5.269 6.03751H9.734V5.69437C9.734 4.087 8.75 2.86208 7.502 2.86208Z" fill="white"/>
</svg>
